<?xml version="1.0" encoding="utf-8" ?><svg xmlns="http://www.w3.org/2000/svg" xmlns:xlink="http://www.w3.org/1999/xlink" width="3533" height="2638" viewBox="0 0 3533 2638"><path fill="#C6AC3C" transform="scale(1.47208 1.4721)" d="M1249.03 210.482C1354.93 209.492 1461.84 235.398 1550.94 293.81C1650.05 358.284 1718.9 460.078 1741.85 576.069C1760.75 667.099 1760.52 766.079 1732.65 854.988C1706.46 938.538 1656.95 1013.35 1607.45 1084.41C1592.4 1106.02 1577.15 1148.26 1573.94 1174.21C1561.01 1278.94 1594.71 1382.88 1617.11 1484.01C1624.5 1516.91 1635.21 1548.67 1642.16 1581.65C1589.84 1583.23 1530.28 1581.84 1477.38 1581.78L1171.08 1581.58L1089.02 1581.7C1086.88 1557.37 1085.85 1537.83 1076.81 1514.2C1068.32 1492.36 1057.53 1471.45 1050.89 1448.87C1040.76 1414.42 1050.07 1382.16 1019.94 1356.07C1007.79 1345.62 992.571 1339.42 976.58 1338.4C962.311 1337.47 945.19 1341.26 930.887 1343.73C887.083 1351.3 839.217 1359.93 798.978 1335.22C767.444 1315.86 757.001 1280.09 761.999 1244.82C763.434 1234.7 771.468 1208.74 767.917 1200.26C760.801 1183.27 736.391 1176.9 732.224 1154.17C729.595 1139.83 733.918 1129.39 741.442 1117.65C715.447 1094.76 710.784 1073.67 725.329 1041.32C736.858 1015.69 729.91 1013.16 706.305 1003.94C690.902 997.921 673.238 990.06 660.729 979.056C621.777 941.068 660.353 898.36 684.631 865.748C706.366 835.861 730.454 805.842 750.647 775.005C765.389 752.733 767.579 740.38 761.77 715.315C749.117 660.726 773.422 593.265 788.762 542.189C855.885 318.692 1023.89 219.743 1249.03 210.482ZM684.936 940.575C686.991 949.212 688.446 952.951 696.943 957.932C721.289 972.204 762.667 975.03 770.272 1008.16C775.333 1030.21 762.025 1053.29 756.671 1073.42C762.025 1081.76 764.445 1082.56 772.591 1088.16C784.711 1096.5 810.667 1099.1 810.529 1117.71C810.443 1129.29 767.033 1129.51 773.944 1147.39C774.94 1149.97 785.653 1157.2 787.663 1160.07C807.175 1178.68 812.765 1200.92 806.399 1226.91C801.982 1244.95 795.69 1270.65 807.105 1287.36C829.993 1320.86 874.702 1312.96 908.253 1307.39C982.415 1295.06 1058.37 1273.56 1122.25 1233.05C1172.12 1201.17 1198.99 1149.52 1209.83 1092.87C1216.08 1060.27 1221.73 1023.96 1225.92 990.629C1236.04 978.356 1255.96 962.738 1268.83 948.515L1269.42 880.251C1269.54 869.66 1270.21 853.975 1269.69 843.745L1241.54 844.004C1241.62 873.102 1242.51 908.176 1240.95 936.738C1225.75 953.217 1211.7 963.743 1194.37 977.709C1191.04 974.509 1179.39 964.068 1178.66 960.596C1183.46 953.411 1206.56 935.605 1214.63 927.724C1214.87 899.674 1214.84 871.623 1214.53 843.574C1206.05 843.044 1197.74 842.701 1189.66 839.856C1176.31 833.592 1171.53 826.73 1165.78 813.359C1163.47 807.976 1160.97 790.805 1159.15 788.321C1150.14 786.829 1099.61 787.694 1087.57 787.715C1079.82 796.254 1058.03 821.644 1049.92 827.203C1039.83 828.691 1024.8 828.114 1014.27 827.899C1008.68 837.602 1002.21 847.958 990.683 851.01C959.696 859.216 933.98 826.232 950.158 798.663C955.052 790.301 963.133 784.285 972.548 781.995C993.991 776.961 1004.41 790.17 1016.22 804.262L1038.36 804.483C1053.16 790.927 1066.09 773.383 1079.39 761.58C1106.15 759.819 1135.04 762.086 1161.49 760.523C1161.54 751.617 1161.83 741.618 1161.45 732.801C1132.09 732.849 1102.74 732.729 1073.39 732.44C1067.57 736.784 1060.4 744.644 1055.51 750.037C1042.27 764.625 1040.08 767.038 1026.81 750.491C1025.67 749.074 1025.85 747.218 1026.71 745.644C1035.75 734.845 1052.23 717.357 1061.74 707.865C1094.84 706.837 1129.4 708.77 1162.13 707.445C1162.17 698.143 1162.5 687.003 1162.19 677.848C1115.19 676.904 1059.86 676.604 1013.1 677.861C1008.83 687.354 1005.37 693.713 995.009 697.724C947.54 716.102 923.722 645.402 970.187 630.803C991.085 624.237 1004.26 635.377 1014.99 652.127C1057.39 653.391 1100.23 652.365 1142.68 652.858C1149.02 652.932 1156.09 653.008 1162.38 652.7C1162.64 642.965 1162.73 633.226 1162.64 623.487L1098.66 623.943C1087.91 624.013 1071.32 624.563 1061 623.642C1053.47 618.552 1029.09 593.881 1024.12 586.711C1023.69 581.185 1034.66 570.543 1039.32 569.853C1046.44 572.953 1060.8 590.276 1069.34 597.283C1081.7 598.629 1103.98 598.006 1117.03 597.962C1129.52 597.92 1150.07 598.436 1162.08 597.471C1162.19 587.897 1162.25 578.324 1162.25 568.75L1105.7 568.835C1096.72 568.833 1082.87 569.184 1074.3 568.455C1063.01 556.628 1049.45 534.554 1036.74 520.252C1028.38 520.222 1020.45 520.053 1012.11 520.89C1002.83 540.863 985.507 547.429 964.572 538.629C947.407 531.415 938.369 509.044 948.497 492.457C965.892 465.23 999.283 464.304 1012.79 495.071C1029.61 495.785 1047.38 491.826 1056.91 503.703C1066.99 516.261 1075.86 529.608 1084.31 543.275C1108.03 544.198 1138.65 544.13 1162.41 543.317C1164.67 508.76 1179.65 493.89 1214.43 492.523C1215.41 471.626 1215.3 429.856 1214.42 408.664C1204.11 398.566 1179.84 378.18 1172.98 368.351C1172.02 353.264 1174.1 261.174 1170.71 257.208C1137.04 263.358 1111.5 268.138 1078.74 279.304C1002.42 305.313 936.32 354.888 889.983 420.881C852.21 475.55 826.481 545.26 810.071 609.321C802.577 638.571 792.291 669.625 798.168 699.996C800.157 710.275 802.361 720.327 803.736 730.641C807.361 757.837 790.838 786.504 775.617 808.673C763.535 826.068 751.208 843.293 738.642 860.343C723.215 880.989 690.947 918.032 684.936 940.575ZM1378.38 389.605C1383.11 383.317 1409.65 355.685 1415.57 351.324C1420.96 350.817 1433.85 364.32 1432.73 366.555C1426.94 378.081 1413.14 387.579 1404.55 398.103C1404.44 429.305 1403.88 461.721 1404.38 492.826C1413.56 492.794 1423.2 492.898 1432.33 492.699C1432.43 464.795 1431.6 432.43 1432.87 405.001C1446.65 389.05 1462.02 378.241 1476.44 363.91C1476.44 353.6 1478.47 302.643 1473.05 297.351C1467.38 291.819 1456.51 288.505 1449.23 285.521C1392.24 262.154 1322.05 249.682 1260.52 250.267C1257.62 256.448 1259.86 333.04 1259.91 346.686C1268.88 355.463 1289.05 373.836 1295.06 383.51L1294.61 491.951C1303.01 491.9 1315.66 492.195 1323.76 491.68C1324.1 459.271 1324.24 426.859 1324.17 394.448C1324.19 378.218 1323.75 359.101 1324.52 343.031C1319 339.759 1315.35 337.438 1310.95 332.733C1291.63 312.072 1301.79 279.407 1329.46 273.235C1338.28 271.274 1347.52 272.957 1355.08 277.904C1363.61 283.398 1369.59 292.07 1371.69 301.995C1375.83 321.849 1365.12 334.276 1349.25 343.475C1349.45 393.108 1349.39 442.741 1349.05 492.373C1354.53 492.396 1373.63 492.827 1378.03 491.695C1377.94 457.664 1378.06 423.634 1378.38 389.605ZM1512.35 707.257L1577.14 707.143C1588.42 707.125 1604.2 706.689 1615.04 707.617C1621.59 712.826 1647.66 737.982 1648.99 745.308C1647.85 750.05 1637.41 764.117 1632.16 760.389C1621.34 752.695 1614.31 741.125 1603.48 732.84C1573.14 732.674 1542.81 732.673 1512.47 732.837C1512.11 742.05 1512.02 751.272 1512.2 760.491C1539.44 760.672 1567.87 760.149 1594.96 760.682C1604.09 766.55 1623.65 793.678 1632.53 803.491C1656.67 803.808 1680.81 803.916 1704.94 803.815C1712.38 766.821 1716.04 733.788 1714.95 696.078C1690.57 705.556 1671.75 702.268 1658.89 677.859L1513.64 678.31C1511.07 683.103 1512.17 700.616 1512.35 707.257ZM1591.45 1542.43C1585.44 1511.58 1576.43 1482.13 1568.81 1451.74C1558.54 1410.07 1549.72 1368.05 1542.37 1325.77C1529.04 1246.2 1521.32 1177.15 1553.86 1099.88C1568.25 1065.72 1592.75 1036.73 1611.9 1005.46C1628.25 978.755 1648.89 949.763 1662.58 921.843C1675.69 895.108 1691.76 857.705 1698.13 829.18C1673.77 829.159 1646.05 829.748 1621.96 828.78C1609.23 816.466 1598.25 797.991 1586.01 787.555L1534.24 787.494L1513.07 787.617C1511.77 824.032 1494.81 843.307 1457.93 844.259L1458.48 927.463C1466.98 935.988 1491.22 959.557 1497.9 967.887C1498.38 980.761 1497.85 993.852 1498.34 1006.28C1509.54 1014.08 1518.93 1022.76 1521.5 1037.04C1523.01 1045.62 1520.92 1054.44 1515.74 1061.44C1497.02 1086.92 1452.96 1078.26 1450.44 1044.63C1448.98 1025.23 1457.67 1015.39 1473.75 1007.2C1473.82 998.35 1474.11 988.603 1473.71 979.832C1462.27 967.137 1442.08 949.951 1432.52 937.95C1430.94 910.059 1432.04 872.715 1432.09 843.943C1423.12 843.927 1413.36 843.714 1404.46 844.131C1404.25 878.051 1404.46 911.972 1405.11 945.886C1415.72 956.381 1428.09 966.157 1438 976.738C1433.65 980.782 1424.24 990.311 1419.18 992.653C1412.04 991.449 1385.2 964.175 1378.62 957.751C1378.79 921.234 1379.44 880.378 1378.46 844.069C1368.88 843.955 1359.31 843.992 1349.74 844.181L1349.54 1003.15C1359.02 1008.42 1369.07 1014.37 1371.37 1025.76C1375.41 1045.81 1367.23 1066.22 1346.04 1070.72C1335.4 1072.87 1324.34 1070.72 1315.28 1064.74C1289.74 1047.69 1299.65 1015.55 1324.41 1002.83L1324.44 843.684C1314.54 843.568 1304.63 843.625 1294.72 843.853C1294.6 881.288 1294.66 918.724 1294.93 956.158C1284.05 970.869 1259.88 991.503 1253.95 1001.22C1253.79 1017.64 1252.02 1032.45 1251.02 1048.47C1248.03 1096.19 1242.62 1131.2 1223.61 1175.17C1192.15 1238.66 1148.18 1267.48 1085.54 1297.68C1070.4 1304.98 1050.86 1310.56 1036.92 1317.23C1053.49 1330.94 1061.62 1339.25 1071.75 1358.66C1084.99 1384.02 1081.25 1415.17 1089.28 1439.46C1101.74 1477.19 1120.23 1500.44 1125.89 1542.21L1447.71 1542.56L1542.26 1542.74C1554.92 1542.78 1579.3 1543.46 1591.45 1542.43ZM1245.78 492.738L1269.45 492.391C1269.07 462.39 1267.31 423.667 1268.91 394.398C1258.04 381.148 1245.12 370.667 1234.74 357.071C1235.05 322.763 1235.77 284.886 1234.92 250.762L1219.59 251.57C1212.45 251.93 1204.51 252.154 1197.44 252.803C1196.3 285.578 1197.48 324.078 1197.69 357.267C1211.54 371.702 1229.2 386.353 1242.35 401.072C1242.48 410.887 1241.34 488.712 1243.78 492.355L1245.78 492.738ZM1613.3 623.276C1581.8 623.064 1542.47 621.718 1511.52 622.986C1511.31 632.767 1511.26 642.551 1511.38 652.333L1574.75 652.351C1601.52 652.431 1632.22 653.297 1658.64 652.539C1672.85 631.71 1685.08 624.33 1710.34 633.064C1708.44 617.942 1706.46 603.887 1703.47 588.916C1687.03 588.83 1663.72 588.032 1647.76 589.117C1638.77 598.211 1622.37 616.6 1613.3 623.276ZM981.241 827.043C995.712 822.412 990.8 806.412 979.124 803.657C967.075 810.804 966.502 824.291 981.241 827.043ZM984.312 675.977C998.47 667.233 989.626 654.598 977.553 654.851C963.446 664.194 968.385 676.915 984.312 675.977ZM1602.58 597.406C1615.12 586.829 1626.56 572.032 1636.8 563.731C1656.88 563.511 1678.01 563.957 1697.87 563.48C1695.08 550.531 1691.3 539.83 1686.7 527.475C1673.02 527.626 1650.33 527.09 1637.45 528.046C1627.45 540.139 1611.46 560.209 1598.79 568.926C1569.9 569.669 1540.17 568.698 1511.56 569.725L1511.82 597.485L1571.5 597.466L1602.58 597.406ZM976.978 497.552C971.583 499.324 968.655 505.142 970.448 510.529C972.24 515.917 978.07 518.821 983.451 517.008C988.801 515.204 991.686 509.414 989.903 504.056C988.121 498.699 982.342 495.791 976.978 497.552ZM1336.05 319.21C1351.33 316.117 1350.67 300.01 1338.82 297.084C1324.71 300.339 1323.77 312.45 1336.05 319.21ZM1333.21 1026.23C1327.53 1028.47 1324.77 1034.9 1327.05 1040.56C1329.34 1046.21 1335.81 1048.91 1341.44 1046.57C1346.99 1044.26 1349.65 1037.9 1347.39 1032.32C1345.14 1026.74 1338.81 1024.03 1333.21 1026.23ZM1489.27 1051.69C1500.06 1043.03 1497.42 1030.36 1483.32 1030.74C1473.92 1039.59 1474.14 1053.58 1489.27 1051.69ZM1694.5 675.238C1698.13 674.698 1701.19 672.251 1702.51 668.83C1703.84 665.408 1703.22 661.538 1700.9 658.696C1698.58 655.854 1694.92 654.477 1691.3 655.089C1685.78 656.023 1682.05 661.224 1682.93 666.749C1683.8 672.273 1688.97 676.06 1694.5 675.238ZM1500.88 312.088C1501.05 332.945 1501.57 355.287 1500.89 375.978C1485.56 393.155 1473.58 400.696 1458.69 415.362C1458.56 439.369 1457.76 467.909 1458.72 491.542C1488.22 493.689 1511.08 508.461 1511.66 540.414L1511.7 541.984C1511.7 542.298 1511.7 542.613 1511.71 542.927C1535.9 543.114 1562.9 542.75 1586.86 543.771C1594.65 536.165 1602.34 528.451 1609.93 520.632C1614.88 515.517 1622.74 506.914 1627.94 502.557C1643.77 501.299 1661.02 502.399 1677.01 501.872C1647.86 433.35 1599.35 374.818 1537.44 333.446C1528.88 327.68 1510.16 314.511 1500.88 312.088ZM1210.3 525.237C1202.72 529.178 1200.36 530.678 1195.12 537.843L1195.37 714.144L1195.28 765.748C1195.23 780.342 1190.68 807.803 1211.92 809.57C1222.61 810.458 1234.62 810.007 1245.43 809.983L1309.27 809.84L1409.95 809.971C1426.47 810.015 1447.04 811.027 1463.25 809.878C1469.29 807.371 1475.13 804.635 1477.54 798.003C1479.93 791.455 1479.55 566.046 1478.72 543.293C1478.62 540.572 1478.19 537.918 1476.85 535.513C1474.22 530.793 1469.14 527.338 1464.72 524.411C1433.75 525.543 1399.74 524.99 1368.57 525.076L1210.3 525.237Z"/><path fill="#C6AC3C" transform="scale(1.47208 1.4721)" d="M1237.66 553.347C1296.1 551.952 1355.78 555.202 1414.39 553.538C1428.21 553.146 1450.36 551.908 1450.25 571.621C1449.89 637.533 1449.9 703.711 1449.33 769.53C1449.29 774.261 1442 778.954 1438.32 780.702C1416.09 783.84 1380.18 781.772 1356.21 781.777C1320.69 781.785 1281.52 783.361 1246.5 781.743C1242.31 781.549 1237.81 781.131 1233.77 779.947C1230.02 778.848 1226.34 774.541 1224.7 771.035C1221.97 765.202 1222.25 569.348 1224.63 563.995C1227.24 558.115 1231.87 555.516 1237.66 553.347ZM1256.65 748.499L1416.78 748.159C1418.13 723.503 1416.61 692.124 1416.63 666.999C1416.65 641.453 1417.88 612.702 1417.08 587.556L1258.08 587.352C1255.69 592.576 1256.65 732.692 1256.65 748.499Z"/></svg>